<svg xmlns="http://www.w3.org/2000/svg" xml:space="preserve" id="svg1" version="1.1" viewBox="0 0 210 210">
  <g id="layer1">
    <rect id="rect5" width="207.21" height="207.21" x="1.28" y="1.28" ry="32.35" style="opacity:.99;fill:#784421;stroke:#784421;stroke-width:1.5;stroke-linecap:round;stroke-linejoin:round;stroke-dasharray:none;stroke-opacity:1"/>
    <path id="rect1-3" d="M49.8 29.8a20.75 20.75 0 0 1-19.7 20.27V160.1a20.75 20.75 0 0 1 20.27 19.71H160.4a20.75 20.75 0 0 1 19.71-20.27V49.51a20.75 20.75 0 0 1-20.27-19.7Z" style="opacity:.99;fill:#1a1a1a;stroke-width:.271062;stroke-linecap:round;stroke-linejoin:round"/>
    <path id="T2" d="M131.4 46.5v32.08h32.08V52.51l-6-6z" style="opacity:.99;fill:red;stroke:#784421;stroke-width:1.5;stroke-linecap:round;stroke-linejoin:round;stroke-dasharray:none;stroke-opacity:1"/>
    <path id="T0" d="M46.74 78.58h32.08V46.5H52.75l-6 6z" style="opacity:.99;fill:red;stroke:#784421;stroke-width:1.5;stroke-linecap:round;stroke-linejoin:round;stroke-dasharray:none;stroke-opacity:1"/>
    <path id="T4" d="M89.12 88.88v32.08h32.08V88.88z" style="opacity:.99;fill:red;stroke:#784421;stroke-width:1.5;stroke-linecap:round;stroke-linejoin:round;stroke-dasharray:none;stroke-opacity:1"/>
    <path id="T1" d="M89.12 46.55v32.08h32.08V46.55z" style="opacity:.99;fill:red;stroke:#784421;stroke-width:1.5;stroke-linecap:round;stroke-linejoin:round;stroke-dasharray:none;stroke-opacity:1"/>
    <path id="T3" d="M46.79 88.88v32.08h32.08V88.88z" style="opacity:.99;fill:red;stroke:#784421;stroke-width:1.5;stroke-linecap:round;stroke-linejoin:round;stroke-dasharray:none;stroke-opacity:1"/>
    <path id="T5" d="M131.45 88.88v32.08h32.08V88.88z" style="opacity:.99;fill:red;stroke:#784421;stroke-width:1.5;stroke-linecap:round;stroke-linejoin:round;stroke-dasharray:none;stroke-opacity:1"/>
    <path id="T7" d="M89.12 131.2v32.09h32.08V131.2z" style="opacity:.99;fill:red;stroke:#784421;stroke-width:1.5;stroke-linecap:round;stroke-linejoin:round;stroke-dasharray:none;stroke-opacity:1"/>
    <path id="T8" d="M163.48 131.16H131.4v32.08h26.08l6-6z" style="opacity:.99;fill:red;stroke:#784421;stroke-width:1.5;stroke-linecap:round;stroke-linejoin:round;stroke-dasharray:none;stroke-opacity:1"/>
    <path id="T6" d="M78.82 163.24v-32.08H46.74v26.08l6 6z" style="opacity:.99;fill:red;stroke:#784421;stroke-width:1.5;stroke-linecap:round;stroke-linejoin:round;stroke-dasharray:none;stroke-opacity:1"/>
    <circle id="C0" cx="29.06" cy="29.1" r="16.92" style="opacity:.99;fill:#1a1a1a;stroke-width:.274841;stroke-linecap:round;stroke-linejoin:round"/>
    <circle id="C3" cx="-180.84" cy="29.12" r="16.92" style="opacity:.99;fill:#1a1a1a;stroke-width:.274841;stroke-linecap:round;stroke-linejoin:round" transform="rotate(-90)"/>
    <circle id="C2" cx="-181.14" cy="-180.78" r="16.92" style="opacity:.99;fill:#1a1a1a;stroke-width:.274841;stroke-linecap:round;stroke-linejoin:round" transform="scale(-1)"/>
    <circle id="C1" cx="28.77" cy="-181.08" r="16.92" style="opacity:.99;fill:#1a1a1a;stroke-width:.275;stroke-linecap:round;stroke-linejoin:round;stroke-dasharray:none" transform="rotate(90)"/>
    <path id="path6" d="m36.57 1.28.14.26 13.37 23.67h109.98l13.97-23.68.14-.25z" style="opacity:.99;fill:#1a1a1a;stroke-width:.315728;stroke-linecap:round;stroke-linejoin:round"/>
    <path id="path6-6" d="M1.28 35.6v137.6l.26-.15 23.67-12.99V49.8L1.53 35.73Z" style="opacity:.99;fill:#1a1a1a;stroke-width:.315728;stroke-linecap:round;stroke-linejoin:round"/>
    <path id="path6-2" d="m208.49 35.6-.27.14-23.66 13.56v110.67l23.67 14.06.26.14z" style="opacity:.99;fill:#1a1a1a;stroke-width:.315728;stroke-linecap:round;stroke-linejoin:round"/>
    <path id="path6-4" d="m49.8 184.56-14.07 23.67-.14.26h138.58l-.14-.27-13.08-23.66z" style="opacity:.99;fill:#1a1a1a;stroke-width:.315728;stroke-linecap:round;stroke-linejoin:round"/>
    <path id="RD0" d="m-39.9-1.01-43.61 6.48L-103.15-34l31.47-30.88 39.09 20.4z" style="opacity:.99;fill:red;stroke:#784421;stroke-width:5.25302;stroke-linecap:round;stroke-linejoin:round;stroke-dasharray:none;stroke-opacity:1" transform="rotate(35.46 -52.85 85.62) scale(.28555)"/>
    <path id="RD1" d="m-39.9-1.01-43.61 6.48L-103.15-34l31.47-30.88 39.09 20.4z" style="opacity:.99;fill:red;stroke:#784421;stroke-width:5.25302;stroke-linecap:round;stroke-linejoin:round;stroke-dasharray:none;stroke-opacity:1" transform="rotate(125.46 71.63 61.96) scale(.28555)"/>
    <path id="RD2" d="m-39.9-1.01-43.61 6.48L-103.15-34l31.47-30.88 39.09 20.4z" style="opacity:.99;fill:red;stroke:#784421;stroke-width:5.25302;stroke-linecap:round;stroke-linejoin:round;stroke-dasharray:none;stroke-opacity:1" transform="rotate(-144.54 111.28 54.45) scale(.28555)"/>
    <path id="RD3" d="m-39.9-1.01-43.61 6.48L-103.15-34l31.47-30.88 39.09 20.4z" style="opacity:.99;fill:red;stroke:#784421;stroke-width:5.25302;stroke-linecap:round;stroke-linejoin:round;stroke-dasharray:none;stroke-opacity:1" transform="rotate(-54.54 188.47 40) scale(.28555)"/>
    <path id="BK0" d="m19.76 22.36 1.49 3.89-1.48 1.47L30.44 38.4l1.48-1.48 3.89 1.49 2.56-2.56-1.49-3.89 1.48-1.48L27.7 19.81l-1.48 1.47-3.89-1.48z" style="opacity:.99;fill:#000;fill-opacity:1;stroke:#784421;stroke-width:1.30475;stroke-linecap:round;stroke-dasharray:none;stroke-opacity:1"/>
    <path id="YE0" d="M21.37 27.36 26.64 29l-3.45-9.04 17.34 8.12-12.5 12.5z" style="opacity:.99;fill:#f2ff00;fill-opacity:1;stroke:#784421;stroke-width:1.1908;stroke-linecap:round;stroke-dasharray:none;stroke-opacity:1"/>
    <circle id="GY0" cx="-.03" cy="41.13" r="11.04" style="opacity:.99;fill:#74ffff;fill-opacity:1;stroke:#784421;stroke-width:1.69092;stroke-linecap:round;stroke-dasharray:none;stroke-opacity:1" transform="rotate(-45)"/>
    <path id="PU0" d="M98.44 95.34v.01l1.73 8.06a7.6 7.6 90 0 1 0 3.18l-1.73 8.06v0h12.96l-1.73-8.08a7.49 7.49 90 0 1 0-3.14l1.73-8.09z" style="opacity:.99;fill:#550080;fill-opacity:1;stroke:#784421;stroke-width:1.32954;stroke-linecap:round;stroke-dasharray:none;stroke-opacity:1" transform="rotate(-45 -24.58 158.71)"/>
    <path id="OR0" d="m18.34 28.18.07 7 17.88 1.15-1.15-17.88-7-.07-1.25 8.55z" style="opacity:.99;fill:#ff8500;fill-opacity:1;stroke:#784421;stroke-width:1.3424;stroke-linecap:round;stroke-dasharray:none;stroke-opacity:1"/>
    <path id="WH0" d="M22.76 22.8a11.29 11.29 0 0 0-.07 15.9l1.07 1.07 7.74-5.18a2.16 2.16 0 0 1 3.05-3.05l5.19-7.74-.98-.97a11.33 11.33 0 0 0-16-.03z" style="opacity:.99;fill:#fff;fill-opacity:1;stroke:#784421;stroke-width:1.36698;stroke-linecap:round;stroke-dasharray:none;stroke-opacity:1"/>
    <path id="PI0" d="m17.38 31.8 7.04 7.04 3.78-3.77.18.19a4.72 4.72 0 0 0 6.67-.17 4.72 4.72 0 0 0 .17-6.67l-.2-.18 3.79-3.78-7.04-7.04z" style="opacity:.99;fill:#ff74fd;fill-opacity:1;stroke:#784421;stroke-width:1.34435;stroke-linecap:round;stroke-dasharray:none;stroke-opacity:1"/>
    <path id="GN0" d="m22.54 35.63-1.8-14.84 14.85 1.79 1.8 14.84z" style="opacity:.99;fill:#00805a;stroke:#784421;stroke-width:1.30558;stroke-linecap:round;stroke-dasharray:none;stroke-opacity:1"/>
    <path id="BK1" d="m187.83 19.46-3.9 1.49-1.47-1.48-10.68 10.67 1.48 1.48-1.48 3.89 2.56 2.56 3.88-1.49 1.48 1.48 10.68-10.67-1.48-1.48 1.49-3.89z" style="opacity:.99;fill:#000;fill-opacity:1;stroke:#784421;stroke-width:1.30475;stroke-linecap:round;stroke-dasharray:none;stroke-opacity:1"/>
    <path id="YE1" d="m182.82 21.07-1.63 5.27 9.04-3.45-8.13 17.34-12.5-12.5z" style="opacity:.99;fill:#f2ff00;fill-opacity:1;stroke:#784421;stroke-width:1.1908;stroke-linecap:round;stroke-dasharray:none;stroke-opacity:1"/>
    <circle id="GY1" cx="148.38" cy="-107.7" r="11.04" style="opacity:.99;fill:#74ffff;fill-opacity:1;stroke:#784421;stroke-width:1.69092;stroke-linecap:round;stroke-dasharray:none;stroke-opacity:1" transform="rotate(45)"/>
    <path id="PU1" d="M98.44 95.34v.01l1.73 8.06a7.6 7.6 90 0 1 0 3.18l-1.73 8.06v0h12.96l-1.73-8.08a7.49 7.49 90 0 1 0-3.14l1.73-8.09z" style="opacity:.99;fill:#550080;fill-opacity:1;stroke:#784421;stroke-width:1.32954;stroke-linecap:round;stroke-dasharray:none;stroke-opacity:1" transform="rotate(45 235.06 158.72)"/>
    <path id="OR1" d="m182 18.04-7 .07-1.15 17.88 17.89-1.15.07-7-8.55-1.25z" style="opacity:.99;fill:#ff8500;fill-opacity:1;stroke:#784421;stroke-width:1.3424;stroke-linecap:round;stroke-dasharray:none;stroke-opacity:1"/>
    <path id="WH1" d="M187.39 22.46a11.29 11.29 0 0 0-15.9-.07l-1.08 1.07 5.19 7.74a2.16 2.16 0 0 1 3.05 3.05l7.73 5.18.98-.97a11.33 11.33 0 0 0 .03-16z" style="opacity:.99;fill:#fff;fill-opacity:1;stroke:#784421;stroke-width:1.36698;stroke-linecap:round;stroke-dasharray:none;stroke-opacity:1"/>
    <path id="PI1" d="m178.38 17.08-7.04 7.04 3.78 3.78-.2.18a4.72 4.72 0 0 0 .18 6.67 4.72 4.72 0 0 0 6.66.17l.19-.2 3.78 3.79 7.03-7.04z" style="opacity:.99;fill:#ff74fd;fill-opacity:1;stroke:#784421;stroke-width:1.34435;stroke-linecap:round;stroke-dasharray:none;stroke-opacity:1"/>
    <path id="GN1" d="m174.56 22.24 14.84-1.8-1.8 14.85-14.84 1.8z" style="opacity:.99;fill:#00805a;stroke:#784421;stroke-width:1.30558;stroke-linecap:round;stroke-dasharray:none;stroke-opacity:1"/>
    <path id="BK2" d="m190.44 187.53-1.48-3.9 1.48-1.47-10.68-10.68-1.48 1.48-3.89-1.48-2.56 2.56 1.49 3.88-1.48 1.48 10.68 10.68 1.47-1.48 3.9 1.49z" style="opacity:.99;fill:#000;fill-opacity:1;stroke:#784421;stroke-width:1.30475;stroke-linecap:round;stroke-dasharray:none;stroke-opacity:1"/>
    <path id="YE2" d="m188.83 182.52-5.26-1.63 3.45 9.04-17.35-8.13 12.5-12.5z" style="opacity:.99;fill:#f2ff00;fill-opacity:1;stroke:#784421;stroke-width:1.1908;stroke-linecap:round;stroke-dasharray:none;stroke-opacity:1"/>
    <circle id="GY2" cx="-.25" cy="-255.92" r="11.04" style="opacity:.99;fill:#74ffff;fill-opacity:1;stroke:#784421;stroke-width:1.69092;stroke-linecap:round;stroke-dasharray:none;stroke-opacity:1" transform="rotate(135)"/>
    <path id="PU2" d="M98.44 95.34v.01l1.73 8.06a7.6 7.6 90 0 1 0 3.18l-1.73 8.06v0h12.96l-1.73-8.08a7.49 7.49 90 0 1 0-3.14l1.73-8.09z" style="opacity:.99;fill:#550080;fill-opacity:1;stroke:#784421;stroke-width:1.32954;stroke-linecap:round;stroke-dasharray:none;stroke-opacity:1" transform="rotate(135 127.37 158.66)"/>
    <path id="OR2" d="m191.86 181.7-.06-7-17.89-1.15 1.15 17.89 7 .07 1.25-8.55z" style="opacity:.99;fill:#ff8500;fill-opacity:1;stroke:#784421;stroke-width:1.3424;stroke-linecap:round;stroke-dasharray:none;stroke-opacity:1"/>
    <path id="WH2" d="M187.44 187.09a11.29 11.29 0 0 0 .07-15.9l-1.07-1.08-7.73 5.19a2.16 2.16 0 0 1-3.06 3.05l-5.18 7.73.98.98a11.33 11.33 0 0 0 16 .03z" style="opacity:.99;fill:#fff;fill-opacity:1;stroke:#784421;stroke-width:1.36698;stroke-linecap:round;stroke-dasharray:none;stroke-opacity:1"/>
    <path id="PI2" d="m192.82 178.08-7.04-7.04-3.78 3.78a4.72 4.72 0 0 0-6.85-.02 4.72 4.72 0 0 0-.17 6.67l.2.18-3.78 3.78 7.03 7.03z" style="opacity:.99;fill:#ff74fd;fill-opacity:1;stroke:#784421;stroke-width:1.34435;stroke-linecap:round;stroke-dasharray:none;stroke-opacity:1"/>
    <path id="GN2" d="m187.66 174.26 1.8 14.84-14.85-1.8-1.79-14.84z" style="opacity:.99;fill:#00805a;stroke:#784421;stroke-width:1.30558;stroke-linecap:round;stroke-dasharray:none;stroke-opacity:1"/>
    <path id="BK3" d="m22.38 190.14 3.88-1.48 1.48 1.48 10.68-10.68-1.48-1.48 1.49-3.89-2.56-2.56-3.9 1.49-1.47-1.48-10.68 10.68 1.48 1.48-1.49 3.88z" style="opacity:.99;fill:#000;fill-opacity:1;stroke:#784421;stroke-width:1.30475;stroke-linecap:round;stroke-dasharray:none;stroke-opacity:1"/>
    <path id="YE3" d="m27.38 188.53 1.63-5.26-9.04 3.45 8.13-17.35 12.5 12.5z" style="opacity:.99;fill:#f2ff00;fill-opacity:1;stroke:#784421;stroke-width:1.1908;stroke-linecap:round;stroke-dasharray:none;stroke-opacity:1"/>
    <circle id="GY3" cx="-148.46" cy="-107.28" r="11.04" style="opacity:.99;fill:#74ffff;fill-opacity:1;stroke:#784421;stroke-width:1.69092;stroke-linecap:round;stroke-dasharray:none;stroke-opacity:1" transform="rotate(-135)"/>
    <path id="PU3" d="M98.44 95.34v.01l1.73 8.06a7.6 7.6 90 0 1 0 3.18l-1.73 8.06v0h12.96l-1.73-8.08a7.49 7.49 90 0 1 0-3.14l1.73-8.09z" style="opacity:.99;fill:#550080;fill-opacity:1;stroke:#784421;stroke-width:1.32954;stroke-linecap:round;stroke-dasharray:none;stroke-opacity:1" transform="rotate(-135 82.77 158.63)"/>
    <path id="OR3" d="m28.2 191.56 7-.06 1.15-17.89-17.89 1.15-.06 7 8.55 1.25z" style="opacity:.99;fill:#ff8500;fill-opacity:1;stroke:#784421;stroke-width:1.3424;stroke-linecap:round;stroke-dasharray:none;stroke-opacity:1"/>
    <path id="WH3" d="M22.82 187.14a11.29 11.29 0 0 0 15.9.07l1.07-1.07-5.18-7.73a2.16 2.16 0 0 1-3.06-3.06l-7.73-5.18-.98.97a11.33 11.33 0 0 0-.02 16z" style="opacity:.99;fill:#fff;fill-opacity:1;stroke:#784421;stroke-width:1.36698;stroke-linecap:round;stroke-dasharray:none;stroke-opacity:1"/>
    <path id="PI3" d="m31.82 192.52 7.04-7.04-3.78-3.78.2-.18a4.72 4.72 0 0 0-.17-6.67 4.72 4.72 0 0 0-6.67-.17l-.19.2-3.77-3.78-7.04 7.03z" style="opacity:.99;fill:#ff74fd;fill-opacity:1;stroke:#784421;stroke-width:1.34435;stroke-linecap:round;stroke-dasharray:none;stroke-opacity:1"/>
    <path id="GN3" d="m35.65 187.36-14.85 1.8 1.8-14.85 14.84-1.79z" style="opacity:.99;fill:#00805a;stroke:#784421;stroke-width:1.30558;stroke-linecap:round;stroke-dasharray:none;stroke-opacity:1"/>
    <path id="BU1" d="M107.38 68.18c-.25.39-.59 1.14-1.1 2.34l-.9 2.15-.24 1.88a43.88 43.88 0 0 1-.53 3.21c-.16.74-.5 2.45-.75 3.8a80.38 80.38 0 0 1-1.77 7.5 61.42 61.42 0 0 1-9.36 19.28c-1 1.4-2.45 3-4.1 4.58a47.58 47.58 0 0 1-5.3 4.37c-2.1 1.47-3.4 2.37-4.14 3.02h0c-.12.1-.23.2-.32.3a1.9 1.9 0 0 0-.45.63.8.8 0 0 0-.02.55l.05.1v0c.01.05.03.08.05.12.12.24.3.5.54.81a98.4 98.4 0 0 1 4.17 6.26c3.51 5.81 5.18 10.5 5.94 16.21l.34 2.53-.14 2.52-.14 2.52-.63 2.2c-.31 1.11-.65 2.16-1.02 3.16a25.54 25.54 0 0 1-8.33 11.76c-.8.63-1.64 1.25-2.55 1.85a48.13 48.13 0 0 1-6.54 3.6c-3.28 1.4-6.43 1.86-12.56 2.15-4.88.24-5.04-.13 2.47 5.64 4.96 3.82 8.05 20.36 8.18 22.34.34 2.78.93 6.33 1.3 7.73.08.32.23.54.43.67v0l.01.01.04.02.06.04c.01 0 .03 0 .04.02l.07.02.04.01.09.02h.02l.12.01h.18l.08-.02.05-.01.06-.01.2-.06.03-.01h0v0h0l.3-.13.1-.06a3.87 3.87 0 0 0 .33-.21l.14-.1.3-.24a7.18 7.18 0 0 0 1.15-1.2c.07-.1.14-.17.2-.27.23-.3.45-.61.67-.96.18-.3.86-1.2 1.51-2.03l1.19-1.48v0c2.45-2.98 3.79-4.17 5.86-5.36 8.08-4.63 12.04-3.92 17.3 3.1a29.96 29.96 0 0 1 4.58 9.3c.42 1.54.76 3.13 1 4.78.29 1.88.52 3.39.72 4.56.42 3.34.65 4.7.83 4.72v0s.75.31 1.14.31c.4 0 1.14-.31 1.14-.31v0c.18-.03.42-1.38.83-4.72.2-1.17.43-2.68.72-4.56a29.96 29.96 0 0 1 5.6-14.08c5.24-7.02 9.2-7.73 17.28-3.1 2.08 1.19 3.41 2.38 5.86 5.36v0c.37.45.77.94 1.19 1.48a33.02 33.02 0 0 1 2.17 3l.21.25a9.99 9.99 0 0 0 1.16 1.21l.3.24.13.1a4.76 4.76 0 0 0 .33.2l.11.07c.1.05.2.1.3.13h0v0h.02l.2.07.06.01.06.01.07.01h.06l.08.01a2.04 2.04 0 0 0 .16 0l.03-.01.09-.02.03-.01c.03 0 .05-.02.07-.03l.05-.01a1.07 1.07 0 0 0 .1-.06s0 0 0 0v0c.2-.14.35-.36.43-.68.37-1.4.97-4.95 1.3-7.73.14-1.98 3.22-18.52 8.19-22.34 7.5-5.77 7.34-5.4 2.46-5.64-6.12-.3-9.27-.76-12.56-2.15a48.13 48.13 0 0 1-6.54-3.6c-.9-.6-1.75-1.22-2.54-1.85a25.54 25.54 0 0 1-8.34-11.76c-.36-1-.7-2.05-1.02-3.16l-.63-2.2-.14-2.52-.14-2.52.34-2.53c.77-5.7 2.43-10.4 5.95-16.2 1.17-1.94 2.55-4 4.17-6.27.23-.32.42-.58.54-.8.01-.05.03-.08.05-.12v0l.04-.11a.8.8 0 0 0-.01-.55 1.9 1.9 0 0 0-.45-.63 6 6 0 0 0-.33-.3h0c-.74-.65-2.04-1.56-4.13-3.03a47.58 47.58 0 0 1-5.3-4.36 34.02 34.02 0 0 1-4.1-4.58 61.42 61.42 0 0 1-9.36-19.28 80.38 80.38 0 0 1-1.78-7.5c-.25-1.35-.59-3.06-.75-3.8-.16-.73-.4-2.18-.53-3.21l-.23-1.88-.9-2.15c-.53-1.24-.88-2-1.13-2.38a1.1 1.1 0 0 0-.51-.37 1.93 1.93 0 0 0-1 .03c-.13.04-.34.2-.45.38z" style="fill:#0008ff;fill-opacity:1;stroke:#784421;stroke-width:6.76355;stroke-linecap:round;stroke-linejoin:miter;stroke-miterlimit:1.8;stroke-dasharray:none;stroke-opacity:1" transform="rotate(45 94.1 223.77) scale(.16783 .16283)"/>
    <path id="BU0" d="M107.38 68.18c-.25.39-.59 1.14-1.1 2.34l-.9 2.15-.24 1.88a43.88 43.88 0 0 1-.53 3.21c-.16.74-.5 2.45-.75 3.8a80.38 80.38 0 0 1-1.77 7.5 61.42 61.42 0 0 1-9.36 19.28c-1 1.4-2.45 3-4.1 4.58a47.58 47.58 0 0 1-5.3 4.37c-2.1 1.47-3.4 2.37-4.14 3.02h0c-.12.1-.23.2-.32.3a1.9 1.9 0 0 0-.45.63.8.8 0 0 0-.02.55l.05.1v0c.01.05.03.08.05.12.12.24.3.5.54.81a98.4 98.4 0 0 1 4.17 6.26c3.51 5.81 5.18 10.5 5.94 16.21l.34 2.53-.14 2.52-.14 2.52-.63 2.2c-.31 1.11-.65 2.16-1.02 3.16a25.54 25.54 0 0 1-8.33 11.76c-.8.63-1.64 1.25-2.55 1.85a48.13 48.13 0 0 1-6.54 3.6c-3.28 1.4-6.43 1.86-12.56 2.15-4.88.24-5.04-.13 2.47 5.64 4.96 3.82 8.05 20.36 8.18 22.34.34 2.78.93 6.33 1.3 7.73.08.32.23.54.43.67v0l.01.01.04.02.06.04c.01 0 .03 0 .04.02l.07.02.04.01.09.02h.02l.12.01h.18l.08-.02.05-.01.06-.01.2-.06.03-.01h0v0h0l.3-.13.1-.06a3.87 3.87 0 0 0 .33-.21l.14-.1.3-.24a7.18 7.18 0 0 0 1.15-1.2c.07-.1.14-.17.2-.27.23-.3.45-.61.67-.96.18-.3.86-1.2 1.51-2.03l1.19-1.48v0c2.45-2.98 3.79-4.17 5.86-5.36 8.08-4.63 12.04-3.92 17.3 3.1a29.96 29.96 0 0 1 4.58 9.3c.42 1.54.76 3.13 1 4.78.29 1.88.52 3.39.72 4.56.42 3.34.65 4.7.83 4.72v0s.75.31 1.14.31c.4 0 1.14-.31 1.14-.31v0c.18-.03.42-1.38.83-4.72.2-1.17.43-2.68.72-4.56a29.96 29.96 0 0 1 5.6-14.08c5.24-7.02 9.2-7.73 17.28-3.1 2.08 1.19 3.41 2.38 5.86 5.36v0c.37.45.77.94 1.19 1.48a33.02 33.02 0 0 1 2.17 3l.21.25a9.99 9.99 0 0 0 1.16 1.21l.3.24.13.1a4.76 4.76 0 0 0 .33.2l.11.07c.1.05.2.1.3.13h0v0h.02l.2.07.06.01.06.01.07.01h.06l.08.01a2.04 2.04 0 0 0 .16 0l.03-.01.09-.02.03-.01c.03 0 .05-.02.07-.03l.05-.01a1.07 1.07 0 0 0 .1-.06s0 0 0 0v0c.2-.14.35-.36.43-.68.37-1.4.97-4.95 1.3-7.73.14-1.98 3.22-18.52 8.19-22.34 7.5-5.77 7.34-5.4 2.46-5.64-6.12-.3-9.27-.76-12.56-2.15a48.13 48.13 0 0 1-6.54-3.6c-.9-.6-1.75-1.22-2.54-1.85a25.54 25.54 0 0 1-8.34-11.76c-.36-1-.7-2.05-1.02-3.16l-.63-2.2-.14-2.52-.14-2.52.34-2.53c.77-5.7 2.43-10.4 5.95-16.2 1.17-1.94 2.55-4 4.17-6.27.23-.32.42-.58.54-.8.01-.05.03-.08.05-.12v0l.04-.11a.8.8 0 0 0-.01-.55 1.9 1.9 0 0 0-.45-.63 6 6 0 0 0-.33-.3h0c-.74-.65-2.04-1.56-4.13-3.03a47.58 47.58 0 0 1-5.3-4.36 34.02 34.02 0 0 1-4.1-4.58 61.42 61.42 0 0 1-9.36-19.28 80.38 80.38 0 0 1-1.78-7.5c-.25-1.35-.59-3.06-.75-3.8-.16-.73-.4-2.18-.53-3.21l-.23-1.88-.9-2.15c-.53-1.24-.88-2-1.13-2.38a1.1 1.1 0 0 0-.51-.37 1.93 1.93 0 0 0-1 .03c-.13.04-.34.2-.45.38z" style="fill:#0008ff;fill-opacity:1;stroke:#784421;stroke-width:6.76355;stroke-linecap:round;stroke-linejoin:miter;stroke-miterlimit:1.8;stroke-dasharray:none;stroke-opacity:1" transform="rotate(-45 29.88 13.38) scale(.16783 .16283)"/>
    <path id="BU3" d="M107.38 68.18c-.25.39-.59 1.14-1.1 2.34l-.9 2.15-.24 1.88a43.88 43.88 0 0 1-.53 3.21c-.16.74-.5 2.45-.75 3.8a80.38 80.38 0 0 1-1.77 7.5 61.42 61.42 0 0 1-9.36 19.28c-1 1.4-2.45 3-4.1 4.58a47.58 47.58 0 0 1-5.3 4.37c-2.1 1.47-3.4 2.37-4.14 3.02h0c-.12.1-.23.2-.32.3a1.9 1.9 0 0 0-.45.63.8.8 0 0 0-.02.55l.05.1v0c.01.05.03.08.05.12.12.24.3.5.54.81a98.4 98.4 0 0 1 4.17 6.26c3.51 5.81 5.18 10.5 5.94 16.21l.34 2.53-.14 2.52-.14 2.52-.63 2.2c-.31 1.11-.65 2.16-1.02 3.16a25.54 25.54 0 0 1-8.33 11.76c-.8.63-1.64 1.25-2.55 1.85a48.13 48.13 0 0 1-6.54 3.6c-3.28 1.4-6.43 1.86-12.56 2.15-4.88.24-5.04-.13 2.47 5.64 4.96 3.82 8.05 20.36 8.18 22.34.34 2.78.93 6.33 1.3 7.73.08.32.23.54.43.67v0l.01.01.04.02.06.04c.01 0 .03 0 .04.02l.07.02.04.01.09.02h.02l.12.01h.18l.08-.02.05-.01.06-.01.2-.06.03-.01h0v0h0l.3-.13.1-.06a3.87 3.87 0 0 0 .33-.21l.14-.1.3-.24a7.18 7.18 0 0 0 1.15-1.2c.07-.1.14-.17.2-.27.23-.3.45-.61.67-.96.18-.3.86-1.2 1.51-2.03l1.19-1.48v0c2.45-2.98 3.79-4.17 5.86-5.36 8.08-4.63 12.04-3.92 17.3 3.1a29.96 29.96 0 0 1 4.58 9.3c.42 1.54.76 3.13 1 4.78.29 1.88.52 3.39.72 4.56.42 3.34.65 4.7.83 4.72v0s.75.31 1.14.31c.4 0 1.14-.31 1.14-.31v0c.18-.03.42-1.38.83-4.72.2-1.17.43-2.68.72-4.56a29.96 29.96 0 0 1 5.6-14.08c5.24-7.02 9.2-7.73 17.28-3.1 2.08 1.19 3.41 2.38 5.86 5.36v0c.37.45.77.94 1.19 1.48a33.02 33.02 0 0 1 2.17 3l.21.25a9.99 9.99 0 0 0 1.16 1.21l.3.24.13.1a4.76 4.76 0 0 0 .33.2l.11.07c.1.05.2.1.3.13h0v0h.02l.2.07.06.01.06.01.07.01h.06l.08.01a2.04 2.04 0 0 0 .16 0l.03-.01.09-.02.03-.01c.03 0 .05-.02.07-.03l.05-.01a1.07 1.07 0 0 0 .1-.06s0 0 0 0v0c.2-.14.35-.36.43-.68.37-1.4.97-4.95 1.3-7.73.14-1.98 3.22-18.52 8.19-22.34 7.5-5.77 7.34-5.4 2.46-5.64-6.12-.3-9.27-.76-12.56-2.15a48.13 48.13 0 0 1-6.54-3.6c-.9-.6-1.75-1.22-2.54-1.85a25.54 25.54 0 0 1-8.34-11.76c-.36-1-.7-2.05-1.02-3.16l-.63-2.2-.14-2.52-.14-2.52.34-2.53c.77-5.7 2.43-10.4 5.95-16.2 1.17-1.94 2.55-4 4.17-6.27.23-.32.42-.58.54-.8.01-.05.03-.08.05-.12v0l.04-.11a.8.8 0 0 0-.01-.55 1.9 1.9 0 0 0-.45-.63 6 6 0 0 0-.33-.3h0c-.74-.65-2.04-1.56-4.13-3.03a47.58 47.58 0 0 1-5.3-4.36 34.02 34.02 0 0 1-4.1-4.58 61.42 61.42 0 0 1-9.36-19.28 80.38 80.38 0 0 1-1.78-7.5c-.25-1.35-.59-3.06-.75-3.8-.16-.73-.4-2.18-.53-3.21l-.23-1.88-.9-2.15c-.53-1.24-.88-2-1.13-2.38a1.1 1.1 0 0 0-.51-.37 1.93 1.93 0 0 0-1 .03c-.13.04-.34.2-.45.38z" style="fill:#0008ff;fill-opacity:1;stroke:#784421;stroke-width:6.76355;stroke-linecap:round;stroke-linejoin:miter;stroke-miterlimit:1.8;stroke-dasharray:none;stroke-opacity:1" transform="rotate(-135 56.29 100.44) scale(.16783 .16283)"/>
    <path id="BU2" d="M107.38 68.18c-.25.39-.59 1.14-1.1 2.34l-.9 2.15-.24 1.88a43.88 43.88 0 0 1-.53 3.21c-.16.74-.5 2.45-.75 3.8a80.38 80.38 0 0 1-1.77 7.5 61.42 61.42 0 0 1-9.36 19.28c-1 1.4-2.45 3-4.1 4.58a47.58 47.58 0 0 1-5.3 4.37c-2.1 1.47-3.4 2.37-4.14 3.02h0c-.12.1-.23.2-.32.3a1.9 1.9 0 0 0-.45.63.8.8 0 0 0-.02.55l.05.1v0c.01.05.03.08.05.12.12.24.3.5.54.81a98.4 98.4 0 0 1 4.17 6.26c3.51 5.81 5.18 10.5 5.94 16.21l.34 2.53-.14 2.52-.14 2.52-.63 2.2c-.31 1.11-.65 2.16-1.02 3.16a25.54 25.54 0 0 1-8.33 11.76c-.8.63-1.64 1.25-2.55 1.85a48.13 48.13 0 0 1-6.54 3.6c-3.28 1.4-6.43 1.86-12.56 2.15-4.88.24-5.04-.13 2.47 5.64 4.96 3.82 8.05 20.36 8.18 22.34.34 2.78.93 6.33 1.3 7.73.08.32.23.54.43.67v0l.01.01.04.02.06.04c.01 0 .03 0 .04.02l.07.02.04.01.09.02h.02l.12.01h.18l.08-.02.05-.01.06-.01.2-.06.03-.01h0v0h0l.3-.13.1-.06a3.87 3.87 0 0 0 .33-.21l.14-.1.3-.24a7.18 7.18 0 0 0 1.15-1.2c.07-.1.14-.17.2-.27.23-.3.45-.61.67-.96.18-.3.86-1.2 1.51-2.03l1.19-1.48v0c2.45-2.98 3.79-4.17 5.86-5.36 8.08-4.63 12.04-3.92 17.3 3.1a29.96 29.96 0 0 1 4.58 9.3c.42 1.54.76 3.13 1 4.78.29 1.88.52 3.39.72 4.56.42 3.34.65 4.7.83 4.72v0s.75.31 1.14.31c.4 0 1.14-.31 1.14-.31v0c.18-.03.42-1.38.83-4.72.2-1.17.43-2.68.72-4.56a29.96 29.96 0 0 1 5.6-14.08c5.24-7.02 9.2-7.73 17.28-3.1 2.08 1.19 3.41 2.38 5.86 5.36v0c.37.45.77.94 1.19 1.48a33.02 33.02 0 0 1 2.17 3l.21.25a9.99 9.99 0 0 0 1.16 1.21l.3.24.13.1a4.76 4.76 0 0 0 .33.2l.11.07c.1.05.2.1.3.13h0v0h.02l.2.07.06.01.06.01.07.01h.06l.08.01a2.04 2.04 0 0 0 .16 0l.03-.01.09-.02.03-.01c.03 0 .05-.02.07-.03l.05-.01a1.07 1.07 0 0 0 .1-.06s0 0 0 0v0c.2-.14.35-.36.43-.68.37-1.4.97-4.95 1.3-7.73.14-1.98 3.22-18.52 8.19-22.34 7.5-5.77 7.34-5.4 2.46-5.64-6.12-.3-9.27-.76-12.56-2.15a48.13 48.13 0 0 1-6.54-3.6c-.9-.6-1.75-1.22-2.54-1.85a25.54 25.54 0 0 1-8.34-11.76c-.36-1-.7-2.05-1.02-3.16l-.63-2.2-.14-2.52-.14-2.52.34-2.53c.77-5.7 2.43-10.4 5.95-16.2 1.17-1.94 2.55-4 4.17-6.27.23-.32.42-.58.54-.8.01-.05.03-.08.05-.12v0l.04-.11a.8.8 0 0 0-.01-.55 1.9 1.9 0 0 0-.45-.63 6 6 0 0 0-.33-.3h0c-.74-.65-2.04-1.56-4.13-3.03a47.58 47.58 0 0 1-5.3-4.36 34.02 34.02 0 0 1-4.1-4.58 61.42 61.42 0 0 1-9.36-19.28 80.38 80.38 0 0 1-1.78-7.5c-.25-1.35-.59-3.06-.75-3.8-.16-.73-.4-2.18-.53-3.21l-.23-1.88-.9-2.15c-.53-1.24-.88-2-1.13-2.38a1.1 1.1 0 0 0-.51-.37 1.93 1.93 0 0 0-1 .03c-.13.04-.34.2-.45.38z" style="fill:#0008ff;fill-opacity:1;stroke:#784421;stroke-width:6.76355;stroke-linecap:round;stroke-linejoin:miter;stroke-miterlimit:1.8;stroke-dasharray:none;stroke-opacity:1" transform="rotate(135 67.36 136.56) scale(.16783 .16283)"/>
  </g>
</svg>

